<?xml version="1.0" encoding="iso-8859-1"?>
<!-- Uploaded to: SVG Repo, www.svgrepo.com, Generator: SVG Repo Mixer Tools -->
<svg height="800px" width="800px" version="1.1" id="Layer_1" xmlns="http://www.w3.org/2000/svg" xmlns:xlink="http://www.w3.org/1999/xlink" 
	 viewBox="0 0 512.001 512.001" xml:space="preserve">
<path style="fill:#FF7876;" d="M229.519,1.376C100.588,14.627,0.02,123.567,0.02,255.999s100.569,241.372,229.5,254.623
	c151.763,15.599,282.461-103.379,282.461-254.623C511.981,104.708,381.233-14.217,229.519,1.376z"/>
<g>
	<path style="fill:#FF5E5B;" d="M229.519,1.376v509.248c151.763,15.599,282.461-103.379,282.461-254.623
		C511.981,104.708,381.233-14.217,229.519,1.376z"/>
	<path style="fill:#FF5E5B;" d="M510.674,229.992c-3.6-0.676,3.407-0.473-100.576-0.473c4.546-46.77,21.135-91.189,48.652-129.775
		c-10.629-13.772-22.622-26.435-35.788-37.776c-2.74,1.764-5.208,4.046-7.217,6.86c-34.031,47.658-54.118,102.752-58.812,160.69
		h-74.452c0-240.08,0.222-224.491-0.473-228.193c-17.253-1.741-34.727-1.744-52.015,0c-0.696,3.7-0.473-11.883-0.473,228.193
		h-74.453c-4.694-57.94-24.781-113.032-58.812-160.69c-2.009-2.814-4.477-5.097-7.217-6.86
		c-13.168,11.341-25.16,24.004-35.79,37.776c27.517,38.586,44.106,83.007,48.652,129.775c-104.219,0-96.999-0.2-100.576,0.473
		c-0.863,8.552-1.306,17.228-1.306,26.008c0,8.779,0.445,17.456,1.306,26.008c3.6,0.676-3.407,0.473,100.576,0.473
		c-4.546,46.77-21.135,91.189-48.652,129.775c10.629,13.772,22.623,26.437,35.791,37.777c2.74-1.764,5.204-4.05,7.213-6.862
		c34.031-47.658,54.118-102.752,58.812-160.69h74.452c0,240.08-0.222,224.491,0.473,228.193c17.253,1.741,34.727,1.744,52.015,0
		c0.696-3.702,0.473,11.883,0.473-228.193h74.452c4.694,57.94,24.781,113.032,58.812,160.69c2.009,2.812,4.473,5.098,7.213,6.862
		c13.168-11.341,25.162-24.006,35.791-37.777c-27.517-38.586-44.106-83.007-48.652-129.775c104.219,0,96.999,0.198,100.576-0.473
		C512.415,264.754,512.419,247.28,510.674,229.992z"/>
</g>
<path style="fill:#FF4642;" d="M510.674,229.992c-3.6-0.676,3.407-0.473-100.576-0.473c4.546-46.77,21.135-91.189,48.652-129.775
	c-10.629-13.772-22.622-26.435-35.788-37.776c-2.74,1.764-5.208,4.046-7.217,6.86c-34.031,47.658-54.118,102.752-58.812,160.69
	h-74.452c0-240.08,0.222-224.491-0.473-228.193c-17.253-1.741-34.727-1.744-52.015,0c-0.696,3.7-0.473-11.883-0.473,228.193v52.961
	c0,240.08-0.222,224.491,0.473,228.193c17.253,1.741,34.727,1.744,52.015,0c0.696-3.702,0.473,11.883,0.473-228.193h74.452
	c4.694,57.94,24.781,113.032,58.812,160.69c2.009,2.812,4.473,5.098,7.213,6.862c13.168-11.341,25.162-24.006,35.791-37.777
	c-27.517-38.586-44.106-83.007-48.652-129.775c104.219,0,96.999,0.198,100.576-0.473
	C512.415,264.754,512.419,247.28,510.674,229.992z"/>
</svg>